<?xml version="1.0" encoding="UTF-8" standalone="no"?><!DOCTYPE svg PUBLIC "-//W3C//DTD SVG 1.1//EN" "http://www.w3.org/Graphics/SVG/1.1/DTD/svg11.dtd"><svg width="100%" height="100%" viewBox="0 0 768 768" version="1.1" xmlns="http://www.w3.org/2000/svg" xmlns:xlink="http://www.w3.org/1999/xlink" xml:space="preserve" xmlns:serif="http://www.serif.com/" style="fill-rule:evenodd;clip-rule:evenodd;stroke-linecap:round;stroke-linejoin:round;stroke-miterlimit:1.5;"><path d="M233.884,491.494l67.359,141.753l-16.629,65.118c0.262,6.013 3.618,8.224 9.824,6.934l140.066,-1.775c3.886,-2.35 5.695,-5.592 4.811,-9.992l-34.876,-100.09c-6.329,-1.183 -12.751,-0.921 -19.291,1.149l-68.899,-116.198c-16.198,1.171 -42.382,5.658 -82.365,13.101Zm353.131,10.38c-76.949,-55.861 -176.808,-63.907 -286.579,-50.149l15.813,26.668c-16.199,1.169 -42.387,5.648 -82.365,13.101l-12.399,-26.093l-5.465,1.098c-131.49,27.416 -172.067,-176.872 -41.955,-208.891l44.169,-8.871l1.507,-0.285c127.97,-24.321 225.853,-76.619 283.381,-166.44l19.718,-3.96c6.746,-0.779 10.957,1.955 12.384,8.548l79.811,397.383c1.428,5.588 -0.447,10.301 -6.218,13.982l-21.296,4.277l-0.506,-0.368Zm-26.987,-291.775l30.774,153.114c34.104,-13.4 49.883,-42.561 45.224,-89.303c-10.159,-41.264 -36.495,-61.212 -75.998,-63.811Z" style="fill:none;stroke:#000;stroke-width:60px;"/><path d="M560.028,210.099l30.774,153.114c34.104,-13.4 49.883,-42.561 45.224,-89.303c-10.159,-41.264 -36.495,-61.212 -75.998,-63.811Z" style="fill:#b97b1d;"/><path d="M233.884,491.494l67.359,141.753l-16.629,65.118c0.262,6.013 3.618,8.224 9.824,6.934l140.066,-1.775c3.886,-2.35 5.695,-5.592 4.811,-9.992l-34.876,-100.09c-6.329,-1.183 -12.751,-0.921 -19.291,1.149l-68.899,-116.198c-16.198,1.171 -42.382,5.658 -82.365,13.101Z" style="fill:#05b324;"/><path d="M316.249,478.393l-25.274,-42.624l-77.221,13.362l20.13,42.363c39.978,-7.453 66.166,-11.932 82.365,-13.101Z" style="fill:#2a8a33;"/><path d="M218.234,248.737l-44.169,8.871c-130.112,32.019 -89.535,236.307 41.955,208.891l44.169,-8.871l-41.955,-208.891Z" style="fill:#33a13c;"/><path d="M218.234,248.737c128.71,-24.197 227.135,-76.552 284.888,-166.725l84.399,420.23c-86.3,-62.975 -201.554,-65.564 -327.332,-44.614l-41.955,-208.891Z" style="fill:#9fe2a3;"/><path d="M503.122,82.012l19.718,-3.96c6.746,-0.779 10.957,1.955 12.384,8.548l79.811,397.383c1.428,5.588 -0.447,10.301 -6.218,13.982l-21.296,4.277l-84.399,-420.23Z" style="fill:#33a23d;"/><g><path d="M240.356,358.88c-49.059,5.399 -97.503,7.379 -145.738,5.423c-1.585,-45.984 22.692,-92.728 79.447,-106.695l44.169,-8.871l22.122,110.143Z" style="fill:#3dba48;"/><path d="M544.926,290.159c-106.287,33.751 -206.699,58.02 -304.57,68.721l-22.122,-110.143c128.71,-24.197 227.135,-76.552 284.888,-166.725l41.804,208.147Z" style="fill:#bceabf;"/><path d="M544.926,290.159l-41.804,-208.147l19.718,-3.96c6.746,-0.779 10.957,1.955 12.384,8.548l38.977,194.07c-9.815,3.24 -19.578,6.404 -29.275,9.489Z" style="fill:#3dba47;"/></g></svg>