<?xml version="1.0" encoding="UTF-8" standalone="no"?><!DOCTYPE svg PUBLIC "-//W3C//DTD SVG 1.1//EN" "http://www.w3.org/Graphics/SVG/1.1/DTD/svg11.dtd"><svg width="100%" height="100%" viewBox="0 0 768 768" version="1.1" xmlns="http://www.w3.org/2000/svg" xmlns:xlink="http://www.w3.org/1999/xlink" xml:space="preserve" xmlns:serif="http://www.serif.com/" style="fill-rule:evenodd;clip-rule:evenodd;stroke-linejoin:round;stroke-miterlimit:2;"><circle cx="384" cy="384" r="384" style="fill:url(#_Linear1);"/><path d="M593.397,249.176l0.022,156.176c36.075,-6.422 57.288,-31.905 61.924,-78.65c-1.835,-42.456 -23.727,-67.2 -61.946,-77.526Z" style="fill:#b97b1d;"/><path d="M218.23,460.84l38.127,152.242l-29.125,60.569c-0.928,5.947 1.927,8.775 8.266,8.732l158.139,0.117c4.272,-1.539 6.684,-4.362 6.685,-8.849l-34.951,-79.275c-5.972,-2.406 -12.321,-3.413 -19.14,-2.672l-44.669,-127.489c-16.111,-2.042 -42.666,-2.798 -83.332,-3.375Z" style="fill:#05b324;"/><path d="M218.23,460.84l-11.394,-45.497l78.339,2.105l16.387,46.767c5.784,0.722 10.221,1.616 13.484,2.726l-6.641,-67.987l-112.422,-16.073l5.631,77.687l16.616,0.272Z" style="fill:none;"/><path d="M301.562,464.215l-16.387,-46.767l-78.339,-2.105l11.394,45.497c40.662,0.566 67.219,1.331 83.332,3.375Z" style="fill:#2a8a33;"/><path d="M250.688,219.755l-45.051,-0c-133.87,5.772 -134.314,214.049 -0,213.062l45.051,0l-0,-213.062Z" style="fill:#33a13c;"/><path d="M250.688,219.755c130.954,1.621 237.761,-30.329 312.139,-107.364l0,428.622c-72.211,-78.736 -184.698,-103.969 -312.139,-108.196l-0,-213.062Z" style="fill:#9fe2a3;"/><path d="M562.827,112.391l20.112,0c6.768,0.565 10.358,4.075 10.458,10.82l0,405.318c0.301,5.76 -2.467,10.011 -8.849,12.484l-21.721,0l0,-428.622Z" style="fill:#33a23d;"/><g><path d="M250.688,332.098c-49.161,-4.367 -97.047,-11.965 -143.952,-23.381c7.5,-45.396 40.507,-86.445 98.901,-88.962l45.051,-0l-0,112.343Z" style="fill:#3dba48;"/><path d="M562.827,324.695c-110.852,12.161 -214.077,16.183 -312.139,7.403l-0,-112.343c130.954,1.621 237.761,-30.329 312.139,-107.364l0,212.304Z" style="fill:#bceabf;"/><path d="M562.827,324.695l0,-212.304l20.112,0c6.768,0.565 10.358,4.075 10.458,10.82l0,197.945c-10.26,1.244 -20.456,2.423 -30.57,3.539Z" style="fill:#3dba47;"/></g><defs><linearGradient id="_Linear1" x1="0" y1="0" x2="1" y2="0" gradientUnits="userSpaceOnUse" gradientTransform="matrix(6.96498,629.25,-629.25,6.96498,384,78)"><stop offset="0" style="stop-color:#ba291e;stop-opacity:1"/><stop offset="1" style="stop-color:#591713;stop-opacity:1"/></linearGradient></defs></svg>